<?xml version="1.0" encoding="UTF-8"?>
<svg xmlns="http://www.w3.org/2000/svg" xmlns:xlink="http://www.w3.org/1999/xlink" height="16px" viewBox="0 0 16 16" width="16px"><filter id="a" height="100%" width="100%" x="0%" y="0%"><feColorMatrix in="SourceGraphic" type="matrix" values="0 0 0 0 1 0 0 0 0 1 0 0 0 0 1 0 0 0 1 0"/></filter><mask id="b"><g filter="url(#a)"><path d="m 0 0 h 16 v 16 h -16 z" fill-opacity="0.3"/></g></mask><clipPath id="c"><path d="m 0 0 h 1600 v 1200 h -1600 z"/></clipPath><mask id="d"><g filter="url(#a)"><path d="m 0 0 h 16 v 16 h -16 z" fill-opacity="0.05"/></g></mask><clipPath id="e"><path d="m 0 0 h 1600 v 1200 h -1600 z"/></clipPath><mask id="f"><g filter="url(#a)"><path d="m 0 0 h 16 v 16 h -16 z" fill-opacity="0.05"/></g></mask><clipPath id="g"><path d="m 0 0 h 1600 v 1200 h -1600 z"/></clipPath><mask id="h"><g filter="url(#a)"><path d="m 0 0 h 16 v 16 h -16 z" fill-opacity="0.05"/></g></mask><clipPath id="i"><path d="m 0 0 h 1600 v 1200 h -1600 z"/></clipPath><mask id="j"><g filter="url(#a)"><path d="m 0 0 h 16 v 16 h -16 z" fill-opacity="0.05"/></g></mask><clipPath id="k"><path d="m 0 0 h 1600 v 1200 h -1600 z"/></clipPath><mask id="l"><g filter="url(#a)"><path d="m 0 0 h 16 v 16 h -16 z" fill-opacity="0.05"/></g></mask><clipPath id="m"><path d="m 0 0 h 1600 v 1200 h -1600 z"/></clipPath><mask id="n"><g filter="url(#a)"><path d="m 0 0 h 16 v 16 h -16 z" fill-opacity="0.05"/></g></mask><clipPath id="o"><path d="m 0 0 h 1600 v 1200 h -1600 z"/></clipPath><mask id="p"><g filter="url(#a)"><path d="m 0 0 h 16 v 16 h -16 z" fill-opacity="0.3"/></g></mask><clipPath id="q"><path d="m 0 0 h 1600 v 1200 h -1600 z"/></clipPath><mask id="r"><g filter="url(#a)"><path d="m 0 0 h 16 v 16 h -16 z" fill-opacity="0.5"/></g></mask><clipPath id="s"><path d="m 0 0 h 1600 v 1200 h -1600 z"/></clipPath><g clip-path="url(#c)" mask="url(#b)" transform="matrix(1 0 0 1 -740 -80)"><path d="m 562.460938 212.058594 h 10.449218 c -1.183594 0.492187 -1.296875 2.460937 0 3 h -10.449218 z m 0 0" fill="#2e3436"/></g><g fill="#2e3436"><path d="m 8 1.058594 c -3.820312 0 -6.941406 3.121094 -6.941406 6.941406 s 3.121094 6.941406 6.941406 6.941406 s 6.941406 -3.121094 6.941406 -6.941406 s -3.121094 -6.941406 -6.941406 -6.941406 z m 0 1.980468 c 2.753906 0 4.960938 2.207032 4.960938 4.960938 s -2.207032 4.960938 -4.960938 4.960938 s -4.960938 -2.207032 -4.960938 -4.960938 s 2.207032 -4.960938 4.960938 -4.960938 z m 0 0"/><path d="m 5.738281 11.660156 l 3.765625 -2.664062 l 0.757813 -4.65625 l -3.765625 2.664062 z m 2.578125 -2.789062 c -0.488281 0.203125 -1.046875 -0.027344 -1.25 -0.511719 c -0.207031 -0.488281 0.023438 -1.046875 0.507813 -1.253906 c 0.234375 -0.097657 0.5 -0.097657 0.734375 -0.003907 c 0.234375 0.097657 0.421875 0.28125 0.519531 0.515626 c 0.203125 0.488281 -0.023437 1.046874 -0.511719 1.253906 z m 0 0" fill-opacity="0.35"/><path d="m 9.492188 9.003906 l 0.007812 -0.007812 l 0.761719 -4.652344 l -3.753907 2.65625 l 0.65625 0.4375 c 0.101563 -0.148438 0.246094 -0.261719 0.410157 -0.332031 c 0.234375 -0.097657 0.5 -0.097657 0.734375 -0.003907 c 0.234375 0.097657 0.421875 0.285157 0.519531 0.519532 c 0.121094 0.289062 0.089844 0.617187 -0.078125 0.882812 z m 0 0"/></g><g clip-path="url(#e)" mask="url(#d)" transform="matrix(1 0 0 1 -740 -80)"><path d="m 16 748 h 1 v 1 h -1 z m 0 0" fill="#2e3436" fill-rule="evenodd"/></g><g clip-path="url(#g)" mask="url(#f)" transform="matrix(1 0 0 1 -740 -80)"><path d="m 17 747 h 1 v 1 h -1 z m 0 0" fill="#2e3436" fill-rule="evenodd"/></g><g clip-path="url(#i)" mask="url(#h)" transform="matrix(1 0 0 1 -740 -80)"><path d="m 18 750 h 1 v 1 h -1 z m 0 0" fill="#2e3436" fill-rule="evenodd"/></g><g clip-path="url(#k)" mask="url(#j)" transform="matrix(1 0 0 1 -740 -80)"><path d="m 16 750 h 1 v 1 h -1 z m 0 0" fill="#2e3436" fill-rule="evenodd"/></g><g clip-path="url(#m)" mask="url(#l)" transform="matrix(1 0 0 1 -740 -80)"><path d="m 17 751 h 1 v 1 h -1 z m 0 0" fill="#2e3436" fill-rule="evenodd"/></g><g clip-path="url(#o)" mask="url(#n)" transform="matrix(1 0 0 1 -740 -80)"><path d="m 19 751 h 1 v 1 h -1 z m 0 0" fill="#2e3436" fill-rule="evenodd"/></g><g clip-path="url(#q)" mask="url(#p)" transform="matrix(1 0 0 1 -740 -80)"><path d="m 136 776 v 7 h 7 v -7 z m 0 0" fill="#2e3436"/></g><g clip-path="url(#s)" mask="url(#r)" transform="matrix(1 0 0 1 -740 -80)"><path d="m 219 758 h 3 v 12 h -3 z m 0 0" fill="#2e3436"/></g></svg>
